<svg id="Layer_1" data-name="Layer 1" xmlns="http://www.w3.org/2000/svg" viewBox="0 0 300 300"><defs><style>.cls-1{fill:#fff;}</style></defs><path class="cls-1" d="M223.52,74.58c26.9,1.21,49.17,21.91,51.43,48.11-.38.26-.76.54-1.12.83a21.89,21.89,0,0,0-25.52,0,19.67,19.67,0,0,0-2-1.39C243.93,110.49,233.32,102,221,102H81.13c-12.74,0-23.58,9.06-25.51,21.21a37.37,37.37,0,0,0-12.38-2.36,36.75,36.75,0,0,0-16.16,3.31c1.53-26.84,24.07-48.35,51.54-49.59V69.3a68.07,68.07,0,0,1,21-48.95A72.23,72.23,0,0,1,150,0h2.1a72.27,72.27,0,0,1,50.44,20.35,68.1,68.1,0,0,1,21,48.95ZM82.41,210.68c.64-28.22-11.79-76.43-39.46-77C15,133.05,0,182.4,0,209.59c0,15,12.09,25,27,29.13v8.75C27,276.31,51.41,300,81.13,300H221c29.72,0,54.13-23.69,54.13-52.53v-4.68C289.39,240,300.73,232.7,300,221l-5.44-83.89c-1.06-7.66-13.53-6.87-14.1,0l3.19,70.82c.38,8.25-12.53,8.25-12.91,0l-3.18-70.82c-.87-6.61-12-6.61-12.9,0l-3.19,70.82c-.37,8.25-13.28,8.25-12.91,0l3.19-70.82c-.57-6.87-13-7.66-14.1,0L222.17,221c-.76,11.69,10.49,18.95,24.65,21.8v4.71c0,13.82-11.56,25-25.81,25H81.13c-14.24,0-25.81-11.22-25.81-25v-7.92C70,236.3,81.91,226.93,82.41,210.68ZM150,150.92c12.28,0,22.24,9.66,22.24,21.58a21.39,21.39,0,0,1-9.38,17.62l6.33,34.72H130.81l6.34-34.72a21.38,21.38,0,0,1-9.39-17.62C127.76,160.58,137.72,150.92,150,150.92Zm-43-76.4h88.24V69.3a41.07,41.07,0,0,0-12.66-29.52,43.6,43.6,0,0,0-30.41-12.29H150a43.64,43.64,0,0,0-30.41,12.29A41.07,41.07,0,0,0,107,69.3Z"/></svg>